<?xml version="1.0" encoding="UTF-8" standalone="no"?><!DOCTYPE svg PUBLIC "-//W3C//DTD SVG 1.1//EN" "http://www.w3.org/Graphics/SVG/1.1/DTD/svg11.dtd"><svg width="100%" height="100%" viewBox="0 0 123 123" version="1.1" xmlns="http://www.w3.org/2000/svg" xmlns:xlink="http://www.w3.org/1999/xlink" xml:space="preserve" xmlns:serif="http://www.serif.com/" style="fill-rule:evenodd;clip-rule:evenodd;stroke-linejoin:round;stroke-miterlimit:2;"><rect x="0" y="0" width="122.88" height="122.88" style="fill:#ebebeb;"/><g transform="matrix(0.042765,0,0,0.112225,-23.573443,-355.751822)"><g><g transform="matrix(240.225271,0,0,240.225271,736.856664,3514.123044)"><path d="M0.05,-0.91l0.061,0l0,0.061l-0.061,0l0,-0.061Zm0.243,0l0.061,0l0,0.061l-0.061,0l0,-0.061Zm0.244,0l0.061,0l0,0.061l-0.061,0l0,-0.061Zm-0.365,0.122l0.061,0l0,0.061l-0.061,0l0,-0.061Zm0.244,0l0.061,0l0,0.061l-0.061,0l0,-0.061Zm0.243,0l0.061,0l0,0.061l-0.061,0l0,-0.061Zm-0.122,0.122l0.061,0l0,0.061l-0.061,0l0,-0.061Zm-0.244,0l0.061,0l0,0.061l-0.061,0l0,-0.061Zm-0.243,0l0.061,0l0,0.061l-0.061,0l0,-0.061Zm0.608,0.122l0.061,0l0,0.061l-0.061,0l0,-0.061Zm-0.243,0l0.061,0l0,0.061l-0.061,0l0,-0.061Zm-0.244,0l0.061,0l0,0.061l-0.061,0l0,-0.061Zm-0.122,0.122l0.061,0l0,0.061l-0.061,0l0,-0.061Zm0.243,0l0.061,0l0,0.061l-0.061,0l0,-0.061Zm0.244,0l0.061,0l0,0.061l-0.061,0l0,-0.061Zm0.122,0.122l0.061,0l0,0.061l-0.061,0l0,-0.061Zm-0.243,0l0.061,0l0,0.061l-0.061,0l0,-0.061Zm-0.244,0l0.061,0l0,0.061l-0.061,0l0,-0.061Zm-0.122,0.122l0.061,0l0,0.061l-0.061,0l0,-0.061Zm0.243,0l0.061,0l0,0.061l-0.061,0l0,-0.061Zm0.244,0l0.061,0l0,0.061l-0.061,0l0,-0.061Zm-0.365,0.122l0.061,0l0,0.061l-0.061,0l0,-0.061Zm0.244,0l0.061,0l0,0.061l-0.061,0l0,-0.061Zm0.243,0l0.061,0l0,0.061l-0.061,0l0,-0.061Zm-0.122,0.122l0.061,0l0,0.061l-0.061,0l0,-0.061Zm-0.244,0l0.061,0l0,0.061l-0.061,0l0,-0.061Zm-0.243,0l0.061,0l0,0.061l-0.061,0l0,-0.061Zm0.122,0.122l0.061,0l0,0.061l-0.061,0l0,-0.061Zm0.244,0l0.061,0l0,0.061l-0.061,0l0,-0.061Zm0.243,0l0.061,0l0,0.061l-0.061,0l0,-0.061Z" style="fill-rule:nonzero;"/></g><g transform="matrix(240.225271,0,0,240.225271,907.05533,3514.123044)"><path d="M0.05,-0.91l0.061,0l0,0.061l-0.061,0l0,-0.061Zm0.122,0l0.061,0l0,0.061l-0.061,0l0,-0.061Zm0.122,0l0.061,0l0,0.061l-0.061,0l0,-0.061Zm0.122,0l0.061,0l0,0.061l-0.061,0l0,-0.061Zm0.122,0l0.061,0l0,0.061l-0.061,0l0,-0.061Zm0.122,0l0.061,0l0,0.061l-0.061,0l0,-0.061Zm-0.669,0.122l0.061,0l0,0.061l-0.061,0l0,-0.061Zm0.122,0l0.061,0l0,0.061l-0.061,0l0,-0.061Zm0.122,0l0.061,0l0,0.061l-0.061,0l0,-0.061Zm0.122,0l0.061,0l0,0.061l-0.061,0l0,-0.061Zm0.122,0l0.061,0l0,0.061l-0.061,0l0,-0.061Zm0.122,0l0.061,0l0,0.061l-0.061,0l0,-0.061Zm-0.547,0.122l0.061,0l0,0.061l-0.061,0l0,-0.061Zm0.122,0l0.061,0l0,0.061l-0.061,0l0,-0.061Zm0.122,0l0.061,0l0,0.061l-0.061,0l0,-0.061Zm0.122,0l0.061,0l0,0.061l-0.061,0l0,-0.061Zm0.122,0l0.061,0l0,0.061l-0.061,0l0,-0.061Zm0.122,0l0.061,0l0,0.061l-0.061,0l0,-0.061Zm-0.669,0.122l0.061,0l0,0.061l-0.061,0l0,-0.061Zm0.122,0l0.061,0l0,0.061l-0.061,0l0,-0.061Zm0.122,0l0.061,0l0,0.061l-0.061,0l0,-0.061Zm0.122,0l0.061,0l0,0.061l-0.061,0l0,-0.061Zm0.122,0l0.061,0l0,0.061l-0.061,0l0,-0.061Zm0.122,0l0.061,0l0,0.061l-0.061,0l0,-0.061Zm-0.547,0.122l0.061,0l0,0.061l-0.061,0l0,-0.061Zm0.122,0l0.061,0l0,0.061l-0.061,0l0,-0.061Zm0.122,0l0.061,0l0,0.061l-0.061,0l0,-0.061Zm0.122,0l0.061,0l0,0.061l-0.061,0l0,-0.061Zm0.122,0l0.061,0l0,0.061l-0.061,0l0,-0.061Zm0.122,0l0.061,0l0,0.061l-0.061,0l0,-0.061Zm-0.669,0.122l0.061,0l0,0.061l-0.061,0l0,-0.061Zm0.243,0l0.061,0l0,0.061l-0.061,0l0,-0.061Zm0.122,0l0.061,0l0,0.061l-0.061,0l0,-0.061Zm0.122,0l0.061,0l0,0.061l-0.061,0l0,-0.061Zm0.122,0l0.061,0l0,0.061l-0.061,0l0,-0.061Zm-0.487,0l0.061,0l0,0.061l-0.061,0l0,-0.061Zm0.548,0.122l0.061,0l0,0.061l-0.061,0l0,-0.061Zm-0.122,0l0.061,0l0,0.061l-0.061,0l0,-0.061Zm-0.122,0l0.061,0l0,0.061l-0.061,0l0,-0.061Zm-0.122,0l0.061,0l0,0.061l-0.061,0l0,-0.061Zm-0.122,0l0.061,0l0,0.061l-0.061,0l0,-0.061Zm-0.122,0l0.061,0l0,0.061l-0.061,0l0,-0.061Zm-0.061,0.122l0.061,0l0,0.061l-0.061,0l0,-0.061Zm0.122,0l0.061,0l0,0.061l-0.061,0l0,-0.061Zm0.122,0l0.061,0l0,0.061l-0.061,0l0,-0.061Zm0.122,0l0.061,0l0,0.061l-0.061,0l0,-0.061Zm0.122,0l0.061,0l0,0.061l-0.061,0l0,-0.061Zm0.122,0l0.061,0l0,0.061l-0.061,0l0,-0.061Zm0.061,0.122l0.061,0l0,0.061l-0.061,0l0,-0.061Zm-0.122,0l0.061,0l0,0.061l-0.061,0l0,-0.061Zm-0.122,0l0.061,0l0,0.061l-0.061,0l0,-0.061Zm-0.122,0l0.061,0l0,0.061l-0.061,0l0,-0.061Zm-0.122,0l0.061,0l0,0.061l-0.061,0l0,-0.061Zm-0.122,0l0.061,0l0,0.061l-0.061,0l0,-0.061Zm-0.061,0.122l0.061,0l0,0.061l-0.061,0l0,-0.061Zm0.122,0l0.061,0l0,0.061l-0.061,0l0,-0.061Zm0.122,0l0.061,0l0,0.061l-0.061,0l0,-0.061Zm0.122,0l0.061,0l0,0.061l-0.061,0l0,-0.061Zm0.122,0l0.061,0l0,0.061l-0.061,0l0,-0.061Zm0.122,0l0.061,0l0,0.061l-0.061,0l0,-0.061Z" style="fill-rule:nonzero;"/></g><g transform="matrix(240.225271,0,0,240.225271,1077.253996,3514.123044)"><rect x="-0.011" y="-0.91" width="0.73" height="1.213" style="fill-rule:nonzero;"/></g><g transform="matrix(240.225271,0,0,240.225271,1247.452662,3514.123044)"><rect x="-0.011" y="-0.91" width="0.73" height="0.607" style="fill-rule:nonzero;"/></g><g transform="matrix(240.225271,0,0,240.225271,1417.651328,3514.123044)"><rect x="-0.011" y="-0.91" width="0.73" height="0.607" style="fill-rule:nonzero;"/></g><g transform="matrix(240.225271,0,0,240.225271,1587.849994,3514.123044)"><rect x="-0.011" y="-0.91" width="0.73" height="1.213" style="fill-rule:nonzero;"/></g><g transform="matrix(240.225271,0,0,240.225271,1758.04866,3514.123044)"><path d="M0.05,-0.91l0.061,0l0,0.061l-0.061,0l0,-0.061Zm0.243,0l0.061,0l0,0.061l-0.061,0l0,-0.061Zm0.244,0l0.061,0l0,0.061l-0.061,0l0,-0.061Zm-0.365,0.122l0.061,0l0,0.061l-0.061,0l0,-0.061Zm0.244,0l0.061,0l0,0.061l-0.061,0l0,-0.061Zm0.243,0l0.061,0l0,0.061l-0.061,0l0,-0.061Zm-0.122,0.122l0.061,0l0,0.061l-0.061,0l0,-0.061Zm-0.244,0l0.061,0l0,0.061l-0.061,0l0,-0.061Zm-0.243,0l0.061,0l0,0.061l-0.061,0l0,-0.061Zm0.608,0.122l0.061,0l0,0.061l-0.061,0l0,-0.061Zm-0.243,0l0.061,0l0,0.061l-0.061,0l0,-0.061Zm-0.244,0l0.061,0l0,0.061l-0.061,0l0,-0.061Zm-0.122,0.122l0.061,0l0,0.061l-0.061,0l0,-0.061Zm0.243,0l0.061,0l0,0.061l-0.061,0l0,-0.061Zm0.244,0l0.061,0l0,0.061l-0.061,0l0,-0.061Zm0.122,0.122l0.061,0l0,0.061l-0.061,0l0,-0.061Zm-0.243,0l0.061,0l0,0.061l-0.061,0l0,-0.061Zm-0.244,0l0.061,0l0,0.061l-0.061,0l0,-0.061Zm-0.122,0.122l0.061,0l0,0.061l-0.061,0l0,-0.061Zm0.243,0l0.061,0l0,0.061l-0.061,0l0,-0.061Zm0.244,0l0.061,0l0,0.061l-0.061,0l0,-0.061Zm-0.365,0.122l0.061,0l0,0.061l-0.061,0l0,-0.061Zm0.244,0l0.061,0l0,0.061l-0.061,0l0,-0.061Zm0.243,0l0.061,0l0,0.061l-0.061,0l0,-0.061Zm-0.122,0.122l0.061,0l0,0.061l-0.061,0l0,-0.061Zm-0.244,0l0.061,0l0,0.061l-0.061,0l0,-0.061Zm-0.243,0l0.061,0l0,0.061l-0.061,0l0,-0.061Zm0.122,0.122l0.061,0l0,0.061l-0.061,0l0,-0.061Zm0.244,0l0.061,0l0,0.061l-0.061,0l0,-0.061Zm0.243,0l0.061,0l0,0.061l-0.061,0l0,-0.061Z" style="fill-rule:nonzero;"/></g><g transform="matrix(240.225271,0,0,240.225271,1928.247326,3514.123044)"><path d="M0.05,-0.91l0.061,0l0,0.061l-0.061,0l0,-0.061Zm0.122,0l0.061,0l0,0.061l-0.061,0l0,-0.061Zm0.122,0l0.061,0l0,0.061l-0.061,0l0,-0.061Zm0.122,0l0.061,0l0,0.061l-0.061,0l0,-0.061Zm0.122,0l0.061,0l0,0.061l-0.061,0l0,-0.061Zm0.122,0l0.061,0l0,0.061l-0.061,0l0,-0.061Zm-0.669,0.122l0.061,0l0,0.061l-0.061,0l0,-0.061Zm0.122,0l0.061,0l0,0.061l-0.061,0l0,-0.061Zm0.122,0l0.061,0l0,0.061l-0.061,0l0,-0.061Zm0.122,0l0.061,0l0,0.061l-0.061,0l0,-0.061Zm0.122,0l0.061,0l0,0.061l-0.061,0l0,-0.061Zm0.122,0l0.061,0l0,0.061l-0.061,0l0,-0.061Zm-0.547,0.122l0.061,0l0,0.061l-0.061,0l0,-0.061Zm0.122,0l0.061,0l0,0.061l-0.061,0l0,-0.061Zm0.122,0l0.061,0l0,0.061l-0.061,0l0,-0.061Zm0.122,0l0.061,0l0,0.061l-0.061,0l0,-0.061Zm0.122,0l0.061,0l0,0.061l-0.061,0l0,-0.061Zm0.122,0l0.061,0l0,0.061l-0.061,0l0,-0.061Zm-0.669,0.122l0.061,0l0,0.061l-0.061,0l0,-0.061Zm0.122,0l0.061,0l0,0.061l-0.061,0l0,-0.061Zm0.122,0l0.061,0l0,0.061l-0.061,0l0,-0.061Zm0.122,0l0.061,0l0,0.061l-0.061,0l0,-0.061Zm0.122,0l0.061,0l0,0.061l-0.061,0l0,-0.061Zm0.122,0l0.061,0l0,0.061l-0.061,0l0,-0.061Zm-0.547,0.122l0.061,0l0,0.061l-0.061,0l0,-0.061Zm0.122,0l0.061,0l0,0.061l-0.061,0l0,-0.061Zm0.122,0l0.061,0l0,0.061l-0.061,0l0,-0.061Zm0.122,0l0.061,0l0,0.061l-0.061,0l0,-0.061Zm0.122,0l0.061,0l0,0.061l-0.061,0l0,-0.061Zm0.122,0l0.061,0l0,0.061l-0.061,0l0,-0.061Zm-0.669,0.122l0.061,0l0,0.061l-0.061,0l0,-0.061Zm0.243,0l0.061,0l0,0.061l-0.061,0l0,-0.061Zm0.122,0l0.061,0l0,0.061l-0.061,0l0,-0.061Zm0.122,0l0.061,0l0,0.061l-0.061,0l0,-0.061Zm0.122,0l0.061,0l0,0.061l-0.061,0l0,-0.061Zm-0.487,0l0.061,0l0,0.061l-0.061,0l0,-0.061Zm0.548,0.122l0.061,0l0,0.061l-0.061,0l0,-0.061Zm-0.122,0l0.061,0l0,0.061l-0.061,0l0,-0.061Zm-0.122,0l0.061,0l0,0.061l-0.061,0l0,-0.061Zm-0.122,0l0.061,0l0,0.061l-0.061,0l0,-0.061Zm-0.122,0l0.061,0l0,0.061l-0.061,0l0,-0.061Zm-0.122,0l0.061,0l0,0.061l-0.061,0l0,-0.061Zm-0.061,0.122l0.061,0l0,0.061l-0.061,0l0,-0.061Zm0.122,0l0.061,0l0,0.061l-0.061,0l0,-0.061Zm0.122,0l0.061,0l0,0.061l-0.061,0l0,-0.061Zm0.122,0l0.061,0l0,0.061l-0.061,0l0,-0.061Zm0.122,0l0.061,0l0,0.061l-0.061,0l0,-0.061Zm0.122,0l0.061,0l0,0.061l-0.061,0l0,-0.061Zm0.061,0.122l0.061,0l0,0.061l-0.061,0l0,-0.061Zm-0.122,0l0.061,0l0,0.061l-0.061,0l0,-0.061Zm-0.122,0l0.061,0l0,0.061l-0.061,0l0,-0.061Zm-0.122,0l0.061,0l0,0.061l-0.061,0l0,-0.061Zm-0.122,0l0.061,0l0,0.061l-0.061,0l0,-0.061Zm-0.122,0l0.061,0l0,0.061l-0.061,0l0,-0.061Zm-0.061,0.122l0.061,0l0,0.061l-0.061,0l0,-0.061Zm0.122,0l0.061,0l0,0.061l-0.061,0l0,-0.061Zm0.122,0l0.061,0l0,0.061l-0.061,0l0,-0.061Zm0.122,0l0.061,0l0,0.061l-0.061,0l0,-0.061Zm0.122,0l0.061,0l0,0.061l-0.061,0l0,-0.061Zm0.122,0l0.061,0l0,0.061l-0.061,0l0,-0.061Z" style="fill-rule:nonzero;"/></g><g transform="matrix(240.225271,0,0,240.225271,2098.445992,3514.123044)"><rect x="-0.011" y="-0.91" width="0.73" height="1.213" style="fill-rule:nonzero;"/></g><g transform="matrix(240.225271,0,0,240.225271,2268.644658,3514.123044)"><rect x="-0.011" y="-0.91" width="0.73" height="0.607" style="fill-rule:nonzero;"/></g><g transform="matrix(240.225271,0,0,240.225271,2438.843323,3514.123044)"><rect x="-0.011" y="-0.91" width="0.73" height="0.607" style="fill-rule:nonzero;"/></g><g transform="matrix(240.225271,0,0,240.225271,2609.041989,3514.123044)"><rect x="-0.011" y="-0.91" width="0.73" height="0.607" style="fill-rule:nonzero;"/></g><g transform="matrix(240.225271,0,0,240.225271,2779.240655,3514.123044)"><rect x="-0.011" y="-0.91" width="0.73" height="1.213" style="fill-rule:nonzero;"/></g></g><g><g transform="matrix(240.225271,0,0,240.225271,736.856664,3790.358645)"><path d="M0.05,-0.91l0.061,0l0,0.061l-0.061,0l0,-0.061Zm0.243,0l0.061,0l0,0.061l-0.061,0l0,-0.061Zm0.244,0l0.061,0l0,0.061l-0.061,0l0,-0.061Zm-0.365,0.122l0.061,0l0,0.061l-0.061,0l0,-0.061Zm0.244,0l0.061,0l0,0.061l-0.061,0l0,-0.061Zm0.243,0l0.061,0l0,0.061l-0.061,0l0,-0.061Zm-0.122,0.122l0.061,0l0,0.061l-0.061,0l0,-0.061Zm-0.244,0l0.061,0l0,0.061l-0.061,0l0,-0.061Zm-0.243,0l0.061,0l0,0.061l-0.061,0l0,-0.061Zm0.608,0.122l0.061,0l0,0.061l-0.061,0l0,-0.061Zm-0.243,0l0.061,0l0,0.061l-0.061,0l0,-0.061Zm-0.244,0l0.061,0l0,0.061l-0.061,0l0,-0.061Zm-0.122,0.122l0.061,0l0,0.061l-0.061,0l0,-0.061Zm0.243,0l0.061,0l0,0.061l-0.061,0l0,-0.061Zm0.244,0l0.061,0l0,0.061l-0.061,0l0,-0.061Zm0.122,0.122l0.061,0l0,0.061l-0.061,0l0,-0.061Zm-0.243,0l0.061,0l0,0.061l-0.061,0l0,-0.061Zm-0.244,0l0.061,0l0,0.061l-0.061,0l0,-0.061Zm-0.122,0.122l0.061,0l0,0.061l-0.061,0l0,-0.061Zm0.243,0l0.061,0l0,0.061l-0.061,0l0,-0.061Zm0.244,0l0.061,0l0,0.061l-0.061,0l0,-0.061Zm-0.365,0.122l0.061,0l0,0.061l-0.061,0l0,-0.061Zm0.244,0l0.061,0l0,0.061l-0.061,0l0,-0.061Zm0.243,0l0.061,0l0,0.061l-0.061,0l0,-0.061Zm-0.122,0.122l0.061,0l0,0.061l-0.061,0l0,-0.061Zm-0.244,0l0.061,0l0,0.061l-0.061,0l0,-0.061Zm-0.243,0l0.061,0l0,0.061l-0.061,0l0,-0.061Zm0.122,0.122l0.061,0l0,0.061l-0.061,0l0,-0.061Zm0.244,0l0.061,0l0,0.061l-0.061,0l0,-0.061Zm0.243,0l0.061,0l0,0.061l-0.061,0l0,-0.061Z" style="fill-rule:nonzero;"/></g><g transform="matrix(240.225271,0,0,240.225271,907.05533,3790.358645)"><path d="M0.05,-0.91l0.061,0l0,0.061l-0.061,0l0,-0.061Zm0.122,0l0.061,0l0,0.061l-0.061,0l0,-0.061Zm0.122,0l0.061,0l0,0.061l-0.061,0l0,-0.061Zm0.122,0l0.061,0l0,0.061l-0.061,0l0,-0.061Zm0.122,0l0.061,0l0,0.061l-0.061,0l0,-0.061Zm0.122,0l0.061,0l0,0.061l-0.061,0l0,-0.061Zm-0.669,0.122l0.061,0l0,0.061l-0.061,0l0,-0.061Zm0.122,0l0.061,0l0,0.061l-0.061,0l0,-0.061Zm0.122,0l0.061,0l0,0.061l-0.061,0l0,-0.061Zm0.122,0l0.061,0l0,0.061l-0.061,0l0,-0.061Zm0.122,0l0.061,0l0,0.061l-0.061,0l0,-0.061Zm0.122,0l0.061,0l0,0.061l-0.061,0l0,-0.061Zm-0.547,0.122l0.061,0l0,0.061l-0.061,0l0,-0.061Zm0.122,0l0.061,0l0,0.061l-0.061,0l0,-0.061Zm0.122,0l0.061,0l0,0.061l-0.061,0l0,-0.061Zm0.122,0l0.061,0l0,0.061l-0.061,0l0,-0.061Zm0.122,0l0.061,0l0,0.061l-0.061,0l0,-0.061Zm0.122,0l0.061,0l0,0.061l-0.061,0l0,-0.061Zm-0.669,0.122l0.061,0l0,0.061l-0.061,0l0,-0.061Zm0.122,0l0.061,0l0,0.061l-0.061,0l0,-0.061Zm0.122,0l0.061,0l0,0.061l-0.061,0l0,-0.061Zm0.122,0l0.061,0l0,0.061l-0.061,0l0,-0.061Zm0.122,0l0.061,0l0,0.061l-0.061,0l0,-0.061Zm0.122,0l0.061,0l0,0.061l-0.061,0l0,-0.061Zm-0.547,0.122l0.061,0l0,0.061l-0.061,0l0,-0.061Zm0.122,0l0.061,0l0,0.061l-0.061,0l0,-0.061Zm0.122,0l0.061,0l0,0.061l-0.061,0l0,-0.061Zm0.122,0l0.061,0l0,0.061l-0.061,0l0,-0.061Zm0.122,0l0.061,0l0,0.061l-0.061,0l0,-0.061Zm0.122,0l0.061,0l0,0.061l-0.061,0l0,-0.061Zm-0.669,0.122l0.061,0l0,0.061l-0.061,0l0,-0.061Zm0.243,0l0.061,0l0,0.061l-0.061,0l0,-0.061Zm0.122,0l0.061,0l0,0.061l-0.061,0l0,-0.061Zm0.122,0l0.061,0l0,0.061l-0.061,0l0,-0.061Zm0.122,0l0.061,0l0,0.061l-0.061,0l0,-0.061Zm-0.487,0l0.061,0l0,0.061l-0.061,0l0,-0.061Zm0.548,0.122l0.061,0l0,0.061l-0.061,0l0,-0.061Zm-0.122,0l0.061,0l0,0.061l-0.061,0l0,-0.061Zm-0.122,0l0.061,0l0,0.061l-0.061,0l0,-0.061Zm-0.122,0l0.061,0l0,0.061l-0.061,0l0,-0.061Zm-0.122,0l0.061,0l0,0.061l-0.061,0l0,-0.061Zm-0.122,0l0.061,0l0,0.061l-0.061,0l0,-0.061Zm-0.061,0.122l0.061,0l0,0.061l-0.061,0l0,-0.061Zm0.122,0l0.061,0l0,0.061l-0.061,0l0,-0.061Zm0.122,0l0.061,0l0,0.061l-0.061,0l0,-0.061Zm0.122,0l0.061,0l0,0.061l-0.061,0l0,-0.061Zm0.122,0l0.061,0l0,0.061l-0.061,0l0,-0.061Zm0.122,0l0.061,0l0,0.061l-0.061,0l0,-0.061Zm0.061,0.122l0.061,0l0,0.061l-0.061,0l0,-0.061Zm-0.122,0l0.061,0l0,0.061l-0.061,0l0,-0.061Zm-0.122,0l0.061,0l0,0.061l-0.061,0l0,-0.061Zm-0.122,0l0.061,0l0,0.061l-0.061,0l0,-0.061Zm-0.122,0l0.061,0l0,0.061l-0.061,0l0,-0.061Zm-0.122,0l0.061,0l0,0.061l-0.061,0l0,-0.061Zm-0.061,0.122l0.061,0l0,0.061l-0.061,0l0,-0.061Zm0.122,0l0.061,0l0,0.061l-0.061,0l0,-0.061Zm0.122,0l0.061,0l0,0.061l-0.061,0l0,-0.061Zm0.122,0l0.061,0l0,0.061l-0.061,0l0,-0.061Zm0.122,0l0.061,0l0,0.061l-0.061,0l0,-0.061Zm0.122,0l0.061,0l0,0.061l-0.061,0l0,-0.061Z" style="fill-rule:nonzero;"/></g><g transform="matrix(240.225271,0,0,240.225271,1077.253996,3790.358645)"><rect x="-0.011" y="-0.91" width="0.73" height="1.213" style="fill-rule:nonzero;"/></g><g transform="matrix(240.225271,0,0,240.225271,1247.452662,3790.358645)"><path d="M0.05,-0.91l0.061,0l0,0.061l-0.061,0l0,-0.061Zm0.243,0l0.061,0l0,0.061l-0.061,0l0,-0.061Zm0.244,0l0.061,0l0,0.061l-0.061,0l0,-0.061Zm-0.365,0.122l0.061,0l0,0.061l-0.061,0l0,-0.061Zm0.244,0l0.061,0l0,0.061l-0.061,0l0,-0.061Zm0.243,0l0.061,0l0,0.061l-0.061,0l0,-0.061Zm-0.122,0.122l0.061,0l0,0.061l-0.061,0l0,-0.061Zm-0.244,0l0.061,0l0,0.061l-0.061,0l0,-0.061Zm-0.243,0l0.061,0l0,0.061l-0.061,0l0,-0.061Zm0.608,0.122l0.061,0l0,0.061l-0.061,0l0,-0.061Zm-0.243,0l0.061,0l0,0.061l-0.061,0l0,-0.061Zm-0.244,0l0.061,0l0,0.061l-0.061,0l0,-0.061Zm-0.122,0.122l0.061,0l0,0.061l-0.061,0l0,-0.061Zm0.243,0l0.061,0l0,0.061l-0.061,0l0,-0.061Zm0.244,0l0.061,0l0,0.061l-0.061,0l0,-0.061Zm0.122,0.122l0.061,0l0,0.061l-0.061,0l0,-0.061Zm-0.243,0l0.061,0l0,0.061l-0.061,0l0,-0.061Zm-0.244,0l0.061,0l0,0.061l-0.061,0l0,-0.061Zm-0.122,0.122l0.061,0l0,0.061l-0.061,0l0,-0.061Zm0.243,0l0.061,0l0,0.061l-0.061,0l0,-0.061Zm0.244,0l0.061,0l0,0.061l-0.061,0l0,-0.061Zm-0.365,0.122l0.061,0l0,0.061l-0.061,0l0,-0.061Zm0.244,0l0.061,0l0,0.061l-0.061,0l0,-0.061Zm0.243,0l0.061,0l0,0.061l-0.061,0l0,-0.061Zm-0.122,0.122l0.061,0l0,0.061l-0.061,0l0,-0.061Zm-0.244,0l0.061,0l0,0.061l-0.061,0l0,-0.061Zm-0.243,0l0.061,0l0,0.061l-0.061,0l0,-0.061Zm0.122,0.122l0.061,0l0,0.061l-0.061,0l0,-0.061Zm0.244,0l0.061,0l0,0.061l-0.061,0l0,-0.061Zm0.243,0l0.061,0l0,0.061l-0.061,0l0,-0.061Z" style="fill-rule:nonzero;"/></g><g transform="matrix(240.225271,0,0,240.225271,1417.651328,3790.358645)"><rect x="-0.011" y="-0.303" width="0.73" height="0.606" style="fill-rule:nonzero;"/></g><g transform="matrix(240.225271,0,0,240.225271,1587.849994,3790.358645)"><rect x="-0.011" y="-0.303" width="0.73" height="0.606" style="fill-rule:nonzero;"/></g><g transform="matrix(240.225271,0,0,240.225271,1758.04866,3790.358645)"><path d="M0.05,-0.91l0.061,0l0,0.061l-0.061,0l0,-0.061Zm0.243,0l0.061,0l0,0.061l-0.061,0l0,-0.061Zm0.244,0l0.061,0l0,0.061l-0.061,0l0,-0.061Zm-0.365,0.122l0.061,0l0,0.061l-0.061,0l0,-0.061Zm0.244,0l0.061,0l0,0.061l-0.061,0l0,-0.061Zm0.243,0l0.061,0l0,0.061l-0.061,0l0,-0.061Zm-0.122,0.122l0.061,0l0,0.061l-0.061,0l0,-0.061Zm-0.244,0l0.061,0l0,0.061l-0.061,0l0,-0.061Zm-0.243,0l0.061,0l0,0.061l-0.061,0l0,-0.061Zm0.608,0.122l0.061,0l0,0.061l-0.061,0l0,-0.061Zm-0.243,0l0.061,0l0,0.061l-0.061,0l0,-0.061Zm-0.244,0l0.061,0l0,0.061l-0.061,0l0,-0.061Zm-0.122,0.122l0.061,0l0,0.061l-0.061,0l0,-0.061Zm0.243,0l0.061,0l0,0.061l-0.061,0l0,-0.061Zm0.244,0l0.061,0l0,0.061l-0.061,0l0,-0.061Zm0.122,0.122l0.061,0l0,0.061l-0.061,0l0,-0.061Zm-0.243,0l0.061,0l0,0.061l-0.061,0l0,-0.061Zm-0.244,0l0.061,0l0,0.061l-0.061,0l0,-0.061Zm-0.122,0.122l0.061,0l0,0.061l-0.061,0l0,-0.061Zm0.243,0l0.061,0l0,0.061l-0.061,0l0,-0.061Zm0.244,0l0.061,0l0,0.061l-0.061,0l0,-0.061Zm-0.365,0.122l0.061,0l0,0.061l-0.061,0l0,-0.061Zm0.244,0l0.061,0l0,0.061l-0.061,0l0,-0.061Zm0.243,0l0.061,0l0,0.061l-0.061,0l0,-0.061Zm-0.122,0.122l0.061,0l0,0.061l-0.061,0l0,-0.061Zm-0.244,0l0.061,0l0,0.061l-0.061,0l0,-0.061Zm-0.243,0l0.061,0l0,0.061l-0.061,0l0,-0.061Zm0.122,0.122l0.061,0l0,0.061l-0.061,0l0,-0.061Zm0.244,0l0.061,0l0,0.061l-0.061,0l0,-0.061Zm0.243,0l0.061,0l0,0.061l-0.061,0l0,-0.061Z" style="fill-rule:nonzero;"/></g><g transform="matrix(240.225271,0,0,240.225271,1928.247326,3790.358645)"><path d="M0.05,-0.91l0.061,0l0,0.061l-0.061,0l0,-0.061Zm0.243,0l0.061,0l0,0.061l-0.061,0l0,-0.061Zm0.244,0l0.061,0l0,0.061l-0.061,0l0,-0.061Zm-0.365,0.122l0.061,0l0,0.061l-0.061,0l0,-0.061Zm0.244,0l0.061,0l0,0.061l-0.061,0l0,-0.061Zm0.243,0l0.061,0l0,0.061l-0.061,0l0,-0.061Zm-0.122,0.122l0.061,0l0,0.061l-0.061,0l0,-0.061Zm-0.244,0l0.061,0l0,0.061l-0.061,0l0,-0.061Zm-0.243,0l0.061,0l0,0.061l-0.061,0l0,-0.061Zm0.608,0.122l0.061,0l0,0.061l-0.061,0l0,-0.061Zm-0.243,0l0.061,0l0,0.061l-0.061,0l0,-0.061Zm-0.244,0l0.061,0l0,0.061l-0.061,0l0,-0.061Zm-0.122,0.122l0.061,0l0,0.061l-0.061,0l0,-0.061Zm0.243,0l0.061,0l0,0.061l-0.061,0l0,-0.061Zm0.244,0l0.061,0l0,0.061l-0.061,0l0,-0.061Zm0.122,0.122l0.061,0l0,0.061l-0.061,0l0,-0.061Zm-0.243,0l0.061,0l0,0.061l-0.061,0l0,-0.061Zm-0.244,0l0.061,0l0,0.061l-0.061,0l0,-0.061Zm-0.122,0.122l0.061,0l0,0.061l-0.061,0l0,-0.061Zm0.243,0l0.061,0l0,0.061l-0.061,0l0,-0.061Zm0.244,0l0.061,0l0,0.061l-0.061,0l0,-0.061Zm-0.365,0.122l0.061,0l0,0.061l-0.061,0l0,-0.061Zm0.244,0l0.061,0l0,0.061l-0.061,0l0,-0.061Zm0.243,0l0.061,0l0,0.061l-0.061,0l0,-0.061Zm-0.122,0.122l0.061,0l0,0.061l-0.061,0l0,-0.061Zm-0.244,0l0.061,0l0,0.061l-0.061,0l0,-0.061Zm-0.243,0l0.061,0l0,0.061l-0.061,0l0,-0.061Zm0.122,0.122l0.061,0l0,0.061l-0.061,0l0,-0.061Zm0.244,0l0.061,0l0,0.061l-0.061,0l0,-0.061Zm0.243,0l0.061,0l0,0.061l-0.061,0l0,-0.061Z" style="fill-rule:nonzero;"/></g><g transform="matrix(240.225271,0,0,240.225271,2098.445992,3790.358645)"><rect x="-0.011" y="-0.91" width="0.73" height="0.607" style="fill-rule:nonzero;"/></g><g transform="matrix(240.225271,0,0,240.225271,2268.644658,3790.358645)"><rect x="-0.011" y="-0.91" width="0.73" height="0.607" style="fill-rule:nonzero;"/></g><g transform="matrix(240.225271,0,0,240.225271,2438.843323,3790.358645)"><rect x="-0.011" y="-0.91" width="0.73" height="0.607" style="fill-rule:nonzero;"/></g><g transform="matrix(240.225271,0,0,240.225271,2609.041989,3790.358645)"><rect x="-0.011" y="-0.303" width="0.73" height="0.606" style="fill-rule:nonzero;"/></g><g transform="matrix(240.225271,0,0,240.225271,2779.240655,3790.358645)"><rect x="-0.011" y="-0.303" width="0.73" height="0.606" style="fill-rule:nonzero;"/></g></g><g><g transform="matrix(240.225271,0,0,240.225271,736.856664,4066.594247)"><path d="M0.05,-0.91l0.061,0l0,0.061l-0.061,0l0,-0.061Zm0.243,0l0.061,0l0,0.061l-0.061,0l0,-0.061Zm0.244,0l0.061,0l0,0.061l-0.061,0l0,-0.061Zm-0.365,0.122l0.061,0l0,0.061l-0.061,0l0,-0.061Zm0.244,0l0.061,0l0,0.061l-0.061,0l0,-0.061Zm0.243,0l0.061,0l0,0.061l-0.061,0l0,-0.061Zm-0.122,0.122l0.061,0l0,0.061l-0.061,0l0,-0.061Zm-0.244,0l0.061,0l0,0.061l-0.061,0l0,-0.061Zm-0.243,0l0.061,0l0,0.061l-0.061,0l0,-0.061Zm0.608,0.122l0.061,0l0,0.061l-0.061,0l0,-0.061Zm-0.243,0l0.061,0l0,0.061l-0.061,0l0,-0.061Zm-0.244,0l0.061,0l0,0.061l-0.061,0l0,-0.061Zm-0.122,0.122l0.061,0l0,0.061l-0.061,0l0,-0.061Zm0.243,0l0.061,0l0,0.061l-0.061,0l0,-0.061Zm0.244,0l0.061,0l0,0.061l-0.061,0l0,-0.061Zm0.122,0.122l0.061,0l0,0.061l-0.061,0l0,-0.061Zm-0.243,0l0.061,0l0,0.061l-0.061,0l0,-0.061Zm-0.244,0l0.061,0l0,0.061l-0.061,0l0,-0.061Zm-0.122,0.122l0.061,0l0,0.061l-0.061,0l0,-0.061Zm0.243,0l0.061,0l0,0.061l-0.061,0l0,-0.061Zm0.244,0l0.061,0l0,0.061l-0.061,0l0,-0.061Zm-0.365,0.122l0.061,0l0,0.061l-0.061,0l0,-0.061Zm0.244,0l0.061,0l0,0.061l-0.061,0l0,-0.061Zm0.243,0l0.061,0l0,0.061l-0.061,0l0,-0.061Zm-0.122,0.122l0.061,0l0,0.061l-0.061,0l0,-0.061Zm-0.244,0l0.061,0l0,0.061l-0.061,0l0,-0.061Zm-0.243,0l0.061,0l0,0.061l-0.061,0l0,-0.061Zm0.122,0.122l0.061,0l0,0.061l-0.061,0l0,-0.061Zm0.244,0l0.061,0l0,0.061l-0.061,0l0,-0.061Zm0.243,0l0.061,0l0,0.061l-0.061,0l0,-0.061Z" style="fill-rule:nonzero;"/></g><g transform="matrix(240.225271,0,0,240.225271,907.05533,4066.594247)"><path d="M0.05,-0.91l0.061,0l0,0.061l-0.061,0l0,-0.061Zm0.122,0l0.061,0l0,0.061l-0.061,0l0,-0.061Zm0.122,0l0.061,0l0,0.061l-0.061,0l0,-0.061Zm0.122,0l0.061,0l0,0.061l-0.061,0l0,-0.061Zm0.122,0l0.061,0l0,0.061l-0.061,0l0,-0.061Zm0.122,0l0.061,0l0,0.061l-0.061,0l0,-0.061Zm-0.669,0.122l0.061,0l0,0.061l-0.061,0l0,-0.061Zm0.122,0l0.061,0l0,0.061l-0.061,0l0,-0.061Zm0.122,0l0.061,0l0,0.061l-0.061,0l0,-0.061Zm0.122,0l0.061,0l0,0.061l-0.061,0l0,-0.061Zm0.122,0l0.061,0l0,0.061l-0.061,0l0,-0.061Zm0.122,0l0.061,0l0,0.061l-0.061,0l0,-0.061Zm-0.547,0.122l0.061,0l0,0.061l-0.061,0l0,-0.061Zm0.122,0l0.061,0l0,0.061l-0.061,0l0,-0.061Zm0.122,0l0.061,0l0,0.061l-0.061,0l0,-0.061Zm0.122,0l0.061,0l0,0.061l-0.061,0l0,-0.061Zm0.122,0l0.061,0l0,0.061l-0.061,0l0,-0.061Zm0.122,0l0.061,0l0,0.061l-0.061,0l0,-0.061Zm-0.669,0.122l0.061,0l0,0.061l-0.061,0l0,-0.061Zm0.122,0l0.061,0l0,0.061l-0.061,0l0,-0.061Zm0.122,0l0.061,0l0,0.061l-0.061,0l0,-0.061Zm0.122,0l0.061,0l0,0.061l-0.061,0l0,-0.061Zm0.122,0l0.061,0l0,0.061l-0.061,0l0,-0.061Zm0.122,0l0.061,0l0,0.061l-0.061,0l0,-0.061Zm-0.547,0.122l0.061,0l0,0.061l-0.061,0l0,-0.061Zm0.122,0l0.061,0l0,0.061l-0.061,0l0,-0.061Zm0.122,0l0.061,0l0,0.061l-0.061,0l0,-0.061Zm0.122,0l0.061,0l0,0.061l-0.061,0l0,-0.061Zm0.122,0l0.061,0l0,0.061l-0.061,0l0,-0.061Zm0.122,0l0.061,0l0,0.061l-0.061,0l0,-0.061Zm-0.669,0.122l0.061,0l0,0.061l-0.061,0l0,-0.061Zm0.243,0l0.061,0l0,0.061l-0.061,0l0,-0.061Zm0.122,0l0.061,0l0,0.061l-0.061,0l0,-0.061Zm0.122,0l0.061,0l0,0.061l-0.061,0l0,-0.061Zm0.122,0l0.061,0l0,0.061l-0.061,0l0,-0.061Zm-0.487,0l0.061,0l0,0.061l-0.061,0l0,-0.061Zm0.548,0.122l0.061,0l0,0.061l-0.061,0l0,-0.061Zm-0.122,0l0.061,0l0,0.061l-0.061,0l0,-0.061Zm-0.122,0l0.061,0l0,0.061l-0.061,0l0,-0.061Zm-0.122,0l0.061,0l0,0.061l-0.061,0l0,-0.061Zm-0.122,0l0.061,0l0,0.061l-0.061,0l0,-0.061Zm-0.122,0l0.061,0l0,0.061l-0.061,0l0,-0.061Zm-0.061,0.122l0.061,0l0,0.061l-0.061,0l0,-0.061Zm0.122,0l0.061,0l0,0.061l-0.061,0l0,-0.061Zm0.122,0l0.061,0l0,0.061l-0.061,0l0,-0.061Zm0.122,0l0.061,0l0,0.061l-0.061,0l0,-0.061Zm0.122,0l0.061,0l0,0.061l-0.061,0l0,-0.061Zm0.122,0l0.061,0l0,0.061l-0.061,0l0,-0.061Zm0.061,0.122l0.061,0l0,0.061l-0.061,0l0,-0.061Zm-0.122,0l0.061,0l0,0.061l-0.061,0l0,-0.061Zm-0.122,0l0.061,0l0,0.061l-0.061,0l0,-0.061Zm-0.122,0l0.061,0l0,0.061l-0.061,0l0,-0.061Zm-0.122,0l0.061,0l0,0.061l-0.061,0l0,-0.061Zm-0.122,0l0.061,0l0,0.061l-0.061,0l0,-0.061Zm-0.061,0.122l0.061,0l0,0.061l-0.061,0l0,-0.061Zm0.122,0l0.061,0l0,0.061l-0.061,0l0,-0.061Zm0.122,0l0.061,0l0,0.061l-0.061,0l0,-0.061Zm0.122,0l0.061,0l0,0.061l-0.061,0l0,-0.061Zm0.122,0l0.061,0l0,0.061l-0.061,0l0,-0.061Zm0.122,0l0.061,0l0,0.061l-0.061,0l0,-0.061Z" style="fill-rule:nonzero;"/></g><g transform="matrix(240.225271,0,0,240.225271,1077.253996,4066.594247)"><rect x="-0.011" y="-0.91" width="0.73" height="1.213" style="fill-rule:nonzero;"/></g><g transform="matrix(240.225271,0,0,240.225271,1247.452662,4066.594247)"><rect x="-0.011" y="-0.303" width="0.73" height="0.606" style="fill-rule:nonzero;"/></g><g transform="matrix(240.225271,0,0,240.225271,1417.651328,4066.594247)"><rect x="-0.011" y="-0.303" width="0.73" height="0.606" style="fill-rule:nonzero;"/></g><g transform="matrix(240.225271,0,0,240.225271,1587.849994,4066.594247)"><rect x="-0.011" y="-0.91" width="0.73" height="0.607" style="fill-rule:nonzero;"/></g><g transform="matrix(240.225271,0,0,240.225271,1758.04866,4066.594247)"><path d="M0.05,-0.91l0.061,0l0,0.061l-0.061,0l0,-0.061Zm0.243,0l0.061,0l0,0.061l-0.061,0l0,-0.061Zm0.244,0l0.061,0l0,0.061l-0.061,0l0,-0.061Zm-0.365,0.122l0.061,0l0,0.061l-0.061,0l0,-0.061Zm0.244,0l0.061,0l0,0.061l-0.061,0l0,-0.061Zm0.243,0l0.061,0l0,0.061l-0.061,0l0,-0.061Zm-0.122,0.122l0.061,0l0,0.061l-0.061,0l0,-0.061Zm-0.244,0l0.061,0l0,0.061l-0.061,0l0,-0.061Zm-0.243,0l0.061,0l0,0.061l-0.061,0l0,-0.061Zm0.608,0.122l0.061,0l0,0.061l-0.061,0l0,-0.061Zm-0.243,0l0.061,0l0,0.061l-0.061,0l0,-0.061Zm-0.244,0l0.061,0l0,0.061l-0.061,0l0,-0.061Zm-0.122,0.122l0.061,0l0,0.061l-0.061,0l0,-0.061Zm0.243,0l0.061,0l0,0.061l-0.061,0l0,-0.061Zm0.244,0l0.061,0l0,0.061l-0.061,0l0,-0.061Zm0.122,0.122l0.061,0l0,0.061l-0.061,0l0,-0.061Zm-0.243,0l0.061,0l0,0.061l-0.061,0l0,-0.061Zm-0.244,0l0.061,0l0,0.061l-0.061,0l0,-0.061Zm-0.122,0.122l0.061,0l0,0.061l-0.061,0l0,-0.061Zm0.243,0l0.061,0l0,0.061l-0.061,0l0,-0.061Zm0.244,0l0.061,0l0,0.061l-0.061,0l0,-0.061Zm-0.365,0.122l0.061,0l0,0.061l-0.061,0l0,-0.061Zm0.244,0l0.061,0l0,0.061l-0.061,0l0,-0.061Zm0.243,0l0.061,0l0,0.061l-0.061,0l0,-0.061Zm-0.122,0.122l0.061,0l0,0.061l-0.061,0l0,-0.061Zm-0.244,0l0.061,0l0,0.061l-0.061,0l0,-0.061Zm-0.243,0l0.061,0l0,0.061l-0.061,0l0,-0.061Zm0.122,0.122l0.061,0l0,0.061l-0.061,0l0,-0.061Zm0.244,0l0.061,0l0,0.061l-0.061,0l0,-0.061Zm0.243,0l0.061,0l0,0.061l-0.061,0l0,-0.061Z" style="fill-rule:nonzero;"/></g><g transform="matrix(240.225271,0,0,240.225271,1928.247326,4066.594247)"><path d="M0.05,-0.91l0.061,0l0,0.061l-0.061,0l0,-0.061Zm0.122,0l0.061,0l0,0.061l-0.061,0l0,-0.061Zm0.122,0l0.061,0l0,0.061l-0.061,0l0,-0.061Zm0.122,0l0.061,0l0,0.061l-0.061,0l0,-0.061Zm0.122,0l0.061,0l0,0.061l-0.061,0l0,-0.061Zm0.122,0l0.061,0l0,0.061l-0.061,0l0,-0.061Zm-0.669,0.122l0.061,0l0,0.061l-0.061,0l0,-0.061Zm0.122,0l0.061,0l0,0.061l-0.061,0l0,-0.061Zm0.122,0l0.061,0l0,0.061l-0.061,0l0,-0.061Zm0.122,0l0.061,0l0,0.061l-0.061,0l0,-0.061Zm0.122,0l0.061,0l0,0.061l-0.061,0l0,-0.061Zm0.122,0l0.061,0l0,0.061l-0.061,0l0,-0.061Zm-0.547,0.122l0.061,0l0,0.061l-0.061,0l0,-0.061Zm0.122,0l0.061,0l0,0.061l-0.061,0l0,-0.061Zm0.122,0l0.061,0l0,0.061l-0.061,0l0,-0.061Zm0.122,0l0.061,0l0,0.061l-0.061,0l0,-0.061Zm0.122,0l0.061,0l0,0.061l-0.061,0l0,-0.061Zm0.122,0l0.061,0l0,0.061l-0.061,0l0,-0.061Zm-0.669,0.122l0.061,0l0,0.061l-0.061,0l0,-0.061Zm0.122,0l0.061,0l0,0.061l-0.061,0l0,-0.061Zm0.122,0l0.061,0l0,0.061l-0.061,0l0,-0.061Zm0.122,0l0.061,0l0,0.061l-0.061,0l0,-0.061Zm0.122,0l0.061,0l0,0.061l-0.061,0l0,-0.061Zm0.122,0l0.061,0l0,0.061l-0.061,0l0,-0.061Zm-0.547,0.122l0.061,0l0,0.061l-0.061,0l0,-0.061Zm0.122,0l0.061,0l0,0.061l-0.061,0l0,-0.061Zm0.122,0l0.061,0l0,0.061l-0.061,0l0,-0.061Zm0.122,0l0.061,0l0,0.061l-0.061,0l0,-0.061Zm0.122,0l0.061,0l0,0.061l-0.061,0l0,-0.061Zm0.122,0l0.061,0l0,0.061l-0.061,0l0,-0.061Zm-0.669,0.122l0.061,0l0,0.061l-0.061,0l0,-0.061Zm0.243,0l0.061,0l0,0.061l-0.061,0l0,-0.061Zm0.122,0l0.061,0l0,0.061l-0.061,0l0,-0.061Zm0.122,0l0.061,0l0,0.061l-0.061,0l0,-0.061Zm0.122,0l0.061,0l0,0.061l-0.061,0l0,-0.061Zm-0.487,0l0.061,0l0,0.061l-0.061,0l0,-0.061Zm0.548,0.122l0.061,0l0,0.061l-0.061,0l0,-0.061Zm-0.122,0l0.061,0l0,0.061l-0.061,0l0,-0.061Zm-0.122,0l0.061,0l0,0.061l-0.061,0l0,-0.061Zm-0.122,0l0.061,0l0,0.061l-0.061,0l0,-0.061Zm-0.122,0l0.061,0l0,0.061l-0.061,0l0,-0.061Zm-0.122,0l0.061,0l0,0.061l-0.061,0l0,-0.061Zm-0.061,0.122l0.061,0l0,0.061l-0.061,0l0,-0.061Zm0.122,0l0.061,0l0,0.061l-0.061,0l0,-0.061Zm0.122,0l0.061,0l0,0.061l-0.061,0l0,-0.061Zm0.122,0l0.061,0l0,0.061l-0.061,0l0,-0.061Zm0.122,0l0.061,0l0,0.061l-0.061,0l0,-0.061Zm0.122,0l0.061,0l0,0.061l-0.061,0l0,-0.061Zm0.061,0.122l0.061,0l0,0.061l-0.061,0l0,-0.061Zm-0.122,0l0.061,0l0,0.061l-0.061,0l0,-0.061Zm-0.122,0l0.061,0l0,0.061l-0.061,0l0,-0.061Zm-0.122,0l0.061,0l0,0.061l-0.061,0l0,-0.061Zm-0.122,0l0.061,0l0,0.061l-0.061,0l0,-0.061Zm-0.122,0l0.061,0l0,0.061l-0.061,0l0,-0.061Zm-0.061,0.122l0.061,0l0,0.061l-0.061,0l0,-0.061Zm0.122,0l0.061,0l0,0.061l-0.061,0l0,-0.061Zm0.122,0l0.061,0l0,0.061l-0.061,0l0,-0.061Zm0.122,0l0.061,0l0,0.061l-0.061,0l0,-0.061Zm0.122,0l0.061,0l0,0.061l-0.061,0l0,-0.061Zm0.122,0l0.061,0l0,0.061l-0.061,0l0,-0.061Z" style="fill-rule:nonzero;"/></g><g transform="matrix(240.225271,0,0,240.225271,2098.445992,4066.594247)"><rect x="-0.011" y="-0.91" width="0.73" height="1.213" style="fill-rule:nonzero;"/></g><g transform="matrix(240.225271,0,0,240.225271,2268.644658,4066.594247)"><rect x="-0.011" y="-0.303" width="0.73" height="0.606" style="fill-rule:nonzero;"/></g><g transform="matrix(240.225271,0,0,240.225271,2438.843323,4066.594247)"><rect x="-0.011" y="-0.303" width="0.73" height="0.606" style="fill-rule:nonzero;"/></g><g transform="matrix(240.225271,0,0,240.225271,2609.041989,4066.594247)"><rect x="-0.011" y="-0.303" width="0.73" height="0.606" style="fill-rule:nonzero;"/></g><g transform="matrix(240.225271,0,0,240.225271,2779.240655,4066.594247)"><rect x="-0.011" y="-0.91" width="0.73" height="1.213" style="fill-rule:nonzero;"/></g></g></g></svg>